<svg width="180" height="16" viewBox="0 0 180 16" fill="none" xmlns="http://www.w3.org/2000/svg">
<g clip-path="url(#clip0_1338_3417)">
<path d="M3.61065 15.443C3.22465 15.641 2.78665 15.294 2.86465 14.851L3.69465 10.121L0.171653 6.76501C-0.157347 6.45101 0.0136534 5.87701 0.454654 5.81501L5.35265 5.11901L7.53665 0.792012C7.73365 0.402012 8.26665 0.402012 8.46365 0.792012L10.6477 5.11901L15.5457 5.81501C15.9867 5.87701 16.1577 6.45101 15.8287 6.76501L12.3057 10.121L13.1357 14.851C13.2137 15.294 12.7757 15.641 12.3897 15.443L7.99865 13.187L3.60965 15.443H3.61065Z" fill="#F59700"/>
</g>
<g clip-path="url(#clip1_1338_3417)">
<path d="M24.6107 15.443C24.2247 15.641 23.7867 15.294 23.8647 14.851L24.6947 10.121L21.1717 6.76501C20.8427 6.45101 21.0137 5.87701 21.4547 5.81501L26.3527 5.11901L28.5367 0.792012C28.7337 0.402012 29.2667 0.402012 29.4637 0.792012L31.6477 5.11901L36.5457 5.81501C36.9867 5.87701 37.1577 6.45101 36.8287 6.76501L33.3057 10.121L34.1357 14.851C34.2137 15.294 33.7757 15.641 33.3897 15.443L28.9987 13.187L24.6097 15.443H24.6107Z" fill="#F59700"/>
</g>
<g clip-path="url(#clip2_1338_3417)">
<path d="M45.6107 15.443C45.2247 15.641 44.7867 15.294 44.8647 14.851L45.6947 10.121L42.1717 6.76501C41.8427 6.45101 42.0137 5.87701 42.4547 5.81501L47.3527 5.11901L49.5367 0.792012C49.7337 0.402012 50.2667 0.402012 50.4637 0.792012L52.6477 5.11901L57.5457 5.81501C57.9867 5.87701 58.1577 6.45101 57.8287 6.76501L54.3057 10.121L55.1357 14.851C55.2137 15.294 54.7757 15.641 54.3897 15.443L49.9987 13.187L45.6097 15.443H45.6107Z" fill="#F59700"/>
</g>
<g clip-path="url(#clip3_1338_3417)">
<path d="M66.6107 15.443C66.2247 15.641 65.7867 15.294 65.8647 14.851L66.6947 10.121L63.1717 6.76501C62.8427 6.45101 63.0137 5.87701 63.4547 5.81501L68.3527 5.11901L70.5367 0.792012C70.7337 0.402012 71.2667 0.402012 71.4637 0.792012L73.6477 5.11901L78.5457 5.81501C78.9867 5.87701 79.1577 6.45101 78.8287 6.76501L75.3057 10.121L76.1357 14.851C76.2137 15.294 75.7757 15.641 75.3897 15.443L70.9987 13.187L66.6097 15.443H66.6107Z" fill="#F59700"/>
</g>
<g clip-path="url(#clip4_1338_3417)">
<path fill-rule="evenodd" clip-rule="evenodd" d="M86.8647 14.8502C86.7867 15.2942 87.2247 15.6412 87.6107 15.4432L92.0007 13.1872L96.3897 15.4432C96.7757 15.6412 97.2137 15.2942 97.1357 14.8512L96.3057 10.1212L99.8287 6.76517C100.158 6.45117 99.9867 5.87717 99.5457 5.81517L94.6477 5.11917L92.4637 0.792167C92.422 0.704456 92.3564 0.63035 92.2744 0.57846C92.1923 0.526569 92.0972 0.499023 92.0002 0.499023C91.9031 0.499023 91.808 0.526569 91.7259 0.57846C91.6439 0.63035 91.5783 0.704456 91.5367 0.792167L89.3527 5.12017L84.4547 5.81617C84.0137 5.87817 83.8427 6.45217 84.1717 6.76617L87.6947 10.1222L86.8647 14.8522V14.8502ZM91.7697 12.0832L88.0837 13.9772L88.7777 10.0202C88.7939 9.92908 88.7876 9.83539 88.7591 9.74734C88.7307 9.65929 88.6811 9.57956 88.6147 9.51517L85.7087 6.74517L89.7607 6.16917C89.8446 6.1565 89.9241 6.12368 89.9926 6.07352C90.061 6.02336 90.1163 5.95736 90.1537 5.88117L92.0007 2.22317L93.8467 5.88117C93.884 5.95736 93.9393 6.02336 94.0077 6.07352C94.0762 6.12368 94.1558 6.1565 94.2397 6.16917L98.2917 6.74417L95.3857 9.51417C95.319 9.57861 95.2692 9.6585 95.2408 9.74676C95.2124 9.83502 95.2061 9.92893 95.2227 10.0202L95.9167 13.9772L92.2307 12.0832C92.1594 12.0464 92.0803 12.0272 92.0002 12.0272C91.92 12.0272 91.8409 12.0464 91.7697 12.0832Z" fill="#F59700"/>
</g>
<defs>
<clipPath id="clip0_1338_3417">
<rect width="16" height="16" fill="white"/>
</clipPath>
<clipPath id="clip1_1338_3417">
<rect width="16" height="16" fill="white" transform="translate(21)"/>
</clipPath>
<clipPath id="clip2_1338_3417">
<rect width="16" height="16" fill="white" transform="translate(42)"/>
</clipPath>
<clipPath id="clip3_1338_3417">
<rect width="16" height="16" fill="white" transform="translate(63)"/>
</clipPath>
<clipPath id="clip4_1338_3417">
<rect width="16" height="16" fill="white" transform="translate(84)"/>
</clipPath>
</defs>
</svg>
